<svg xmlns="http://www.w3.org/2000/svg" viewBox="0 0 491.14 324.68"><defs><style>.cls-1{fill:none;stroke:#fff;stroke-miterlimit:10;stroke-width:3px;stroke-dasharray:12;}</style></defs><g id="Capa_2" data-name="Capa 2"><g id="Elementos"><path class="cls-1" d="M1.49,73.17C7.69,134.11,23.92,196.91,57.19,249c17.55,27.5,41.6,51.69,71.52,64.72,37,16.13,78,12.65,105.81-19.12,20.78-23.75,26.3-57,20-87.33-3.84-18.55-12-42.88-26.75-55.7C212,137.88,182.75,139.05,181.58,166c-.67,15.38,12.46,29.25,27.57,32.21s31-3.47,42.21-14,18.34-24.75,23.5-39.25c16.51-46.39,25.41-87.27,70.33-115,42.22-26.11,97.3-33.36,145.7-25.11"/></g></g></svg>