<svg xmlns="http://www.w3.org/2000/svg" viewBox="0 0 349.45 401.6"><defs><style>.cls-1{fill:none;stroke:#fff;stroke-miterlimit:10;stroke-width:2px;stroke-dasharray:12;}</style></defs><g id="Capa_2" data-name="Capa 2"><g id="Elementos"><path class="cls-1" d="M.29,219.55C18,214.25,37,211.45,55,215.61c19.26,4.45,41.63,20.81,43.41,42.12,1.19,14.15-15.76,28.79-27,20.12,2.38-11.47,17.35-16.7,28.25-12.4s17.91,15,22.31,25.87c11.44,28.24,10.35,61.73,28.38,86.29,15.9,21.65,51.77,31.08,74.57,14.7,44.17-31.76-2.27-102.67-23-135.67-25.75-41-69.78-81.52-72.21-132.79C126.12,48.54,202,4.25,269.28,1.13c29-1.34,59.53,7.44,79.44,28.57"/></g></g></svg>