<svg xmlns="http://www.w3.org/2000/svg" viewBox="0 0 775.51 444.49"><defs><style>.cls-1{fill:none;stroke:#fff;stroke-miterlimit:10;stroke-width:3px;stroke-dasharray:12;}</style></defs><g id="Capa_2" data-name="Capa 2"><g id="Elementos"><path class="cls-1" d="M.25,1.48C25.54,5.73,36.34,35.05,34.8,57.71c-1.24,18.26-8,35.62-12.55,53.35-7.23,28.11-8.92,58.17-.74,86s27,53.22,53.19,65.68,59.78,10.25,81.94-8.49c15.24-12.89,24.78-35.27,21.7-55.3-3.24-21.06-23-32-37.35-15.71-12.53,14.23-4.89,42.41,3.94,56.21,39.53,61.82,126.8,57.41,187.58,37.48C378.71,261.8,422.9,239.15,471,232c136.72-20.22,267.22,84.18,303.08,212.05"/></g></g></svg>