<svg xmlns="http://www.w3.org/2000/svg" viewBox="0 0 405.66 464.74"><defs><style>.cls-1{fill:none;stroke:#fff;stroke-miterlimit:10;stroke-width:2px;stroke-dasharray:12;}</style></defs><g id="Capa_2" data-name="Capa 2"><g id="Elementos"><path class="cls-1" d="M.93,153.71c12.4-30.59,44.25-50.47,77.15-48.39a78.59,78.59,0,0,1,48,20.61c9.47,8.77,27.82,41.74,6.06,47.5.35-.1,1.88-10,8.77-10.26,6.36-.29,12.2,6.23,14.64,11.4,2.73,5.83,3.31,12.4,3.77,18.82,3.58,50.6,6.52,101.93,18.91,151.31,10,40,40.82,137,99.62,116.13,22-7.81,31.8-33.27,35.39-56.3,7.78-49.94-1.11-100.76-8.55-150.75s-13.34-101.76.13-150.47S355.64,9.22,405.5,1"/></g></g></svg>