<svg xmlns="http://www.w3.org/2000/svg" viewBox="0 0 368.05 416.57"><defs><style>.cls-1{fill:none;stroke:#fff;stroke-miterlimit:10;stroke-width:3px;stroke-dasharray:12;}</style></defs><g id="Capa_2" data-name="Capa 2"><g id="Elementos"><path class="cls-1" d="M1.39,401.26c5.92-14.44,24.77-16.91,38-12.95,10.67,3.19,20.06,9.52,30,14.61,15.71,8.07,33.33,13.1,50.95,12s35.21-8.86,46.12-22.74,14.11-34.1,6-49.77c-5.6-10.78-17.61-19.44-29.91-20.3-12.93-.91-22.06,9.38-14.34,20,6.77,9.35,24.51,8.6,33.89,5.21,42-15.15,51.1-67.53,47.44-106.28-2.79-29.45-10.29-58.71-8.06-88.21C207.8,69,287.28,5.6,368,1.5"/></g></g></svg>