<svg xmlns="http://www.w3.org/2000/svg" viewBox="0 0 732.02 514.14"><defs><style>.cls-1{fill:none;stroke:#fff;stroke-miterlimit:10;stroke-width:3px;stroke-dasharray:12;}</style></defs><g id="Capa_2" data-name="Capa 2"><g id="Elementos"><path class="cls-1" d="M1.16,434c15.5-18.71,44.66-13.63,62.5-1.6C78,442.06,89.07,455.85,101.44,468,121,487.29,144.88,503,171.6,509.48s56.44,3.18,79.11-12.39,36.81-44.13,32-71.21c-3.33-18.61-17.14-37.07-35-44.06-18.8-7.35-37.15,3.7-30.62,23.15,5.71,17,32.44,24.16,48,23.48,69.46-3,107.31-76.66,119.85-135.95,9.53-45.07,12-92.05,29-134.86C462.21,36,609.79-21.41,731.65,10"/></g></g></svg>