<svg xmlns="http://www.w3.org/2000/svg" viewBox="0 0 406.21 465.74"><defs><style>.cls-1{fill:none;stroke:#fff;stroke-miterlimit:10;stroke-width:3px;stroke-dasharray:12;}</style></defs><g id="Capa_2" data-name="Capa 2"><g id="Elementos"><path class="cls-1" d="M1.39,154.2c12.41-30.59,44.25-50.47,77.15-48.39a78.62,78.62,0,0,1,48,20.61c9.46,8.78,27.81,41.74,6,47.5.35-.09,1.89-10,8.77-10.26,6.36-.28,12.21,6.23,14.64,11.41,2.74,5.82,3.32,12.39,3.77,18.81,3.58,50.61,6.52,101.93,18.91,151.32,10,40,40.82,137,99.62,116.12,22-7.8,31.8-33.27,35.39-56.3,7.79-49.94-1.11-100.76-8.55-150.75s-13.34-101.75.13-150.47S356.1,9.71,406,1.48"/></g></g></svg>