<svg xmlns="http://www.w3.org/2000/svg" viewBox="0 0 39.69 19.19"><defs><style>.cls-1{fill:#fff;}.cls-2{fill:none;stroke:#fff;stroke-miterlimit:10;stroke-width:3px;}</style></defs><g id="Capa_2" data-name="Capa 2"><g id="Elementos"><g id="_01_align_center" data-name=" 01 align center"><path class="cls-1" d="M9.19,2.4h-2V0H5.6V2.4h-2A3.6,3.6,0,0,0,0,6v6.79a6.4,6.4,0,1,0,12.79,0V6A3.6,3.6,0,0,0,9.19,2.4Zm2,10.39a4.8,4.8,0,1,1-9.59,0V6a2,2,0,0,1,2-2H9.19a2,2,0,0,1,2,2Z"/><rect class="cls-1" x="5.6" y="5.6" width="1.6" height="3.2"/></g><polyline class="cls-2" points="38.63 9.9 32.37 16.16 26.11 9.9"/><polyline class="cls-2" points="38.63 3.02 32.37 9.28 26.11 3.02"/></g></g></svg>